<svg width="108" height="114" viewBox="0 0 108 114" fill="none" xmlns="http://www.w3.org/2000/svg">
<g filter="url(#filter0_d_2403_488)">
<circle cx="54" cy="56" r="50" fill="#68B738"/>
<circle cx="54" cy="56" r="49.5" stroke="black"/>
</g>
<g clip-path="url(#clip0_2403_488)">
<path d="M73.597 0.5H73.69C74.1859 0.844454 74.5673 1.33131 74.7826 1.8977L74.7866 1.90802L74.7909 1.91815C75.3521 3.21813 75.7669 4.57647 76.0278 5.96813C76.0838 6.29401 76.22 6.60084 76.4243 6.86087C76.6259 7.11735 76.8873 7.32029 77.1855 7.45193C81.8095 9.8314 85.2213 13.5472 88.4073 17.5895L88.4118 17.5952L88.4165 17.6008C88.4822 17.6793 88.5222 17.776 88.5311 17.878C88.54 17.9799 88.5175 18.0821 88.4665 18.1708L88.4542 18.1923L88.444 18.2148C87.9932 19.2167 87.5498 20.2243 87.1458 21.2343L87.1401 21.2485L87.1353 21.2631C87.094 21.3879 87.0053 21.4914 86.8884 21.5513C86.7714 21.6112 86.6356 21.6226 86.5103 21.5831L86.489 21.5764L86.4673 21.5716C84.2457 21.0837 81.9629 20.9354 79.6968 21.1319L79.6839 21.133L79.6711 21.1348C78.3847 21.3137 77.1773 21.8604 76.1943 22.7093C75.2113 23.5582 74.4944 24.6731 74.1301 25.9197L74.1266 25.9316L74.1237 25.9436C74.0343 26.3171 73.9889 26.7639 74.2404 27.1166C74.5046 27.487 74.9512 27.56 75.33 27.56H75.333H75.3361H75.3391H75.3422H75.3452H75.3483H75.3513H75.3544H75.3574H75.3604H75.3635H75.3665H75.3696H75.3726H75.3757H75.3787H75.3817H75.3848H75.3878H75.3909H75.3939H75.3969H75.4H75.403H75.406H75.4091H75.4121H75.4151H75.4182H75.4212H75.4242H75.4273H75.4303H75.4333H75.4364H75.4394H75.4424H75.4455H75.4485H75.4515H75.4545H75.4576H75.4606H75.4636H75.4667H75.4697H75.4727H75.4757H75.4788H75.4818H75.4848H75.4878H75.4909H75.4939H75.4969H75.4999H75.503H75.506H75.509H75.512H75.515H75.5181H75.5211H75.5241H75.5271H75.5301H75.5332H75.5362H75.5392H75.5422H75.5452H75.5482H75.5513H75.5543H75.5573H75.5603H75.5633H75.5663H75.5694H75.5724H75.5754H75.5784H75.5814H75.5844H75.5874H75.5904H75.5934H75.5965H75.5995H75.6025H75.6055H75.6085H75.6115H75.6145H75.6175H75.6205H75.6235H75.6265H75.6295H75.6325H75.6356H75.6386H75.6416H75.6446H75.6476H75.6506H75.6536H75.6566H75.6596H75.6626H75.6656H75.6686H75.6716H75.6746H75.6776H75.6806H75.6836H75.6866H75.6896H75.6926H75.6956H75.6986H75.7016H75.7046H75.7076H75.7106H75.7136H75.7166H75.7196H75.7226H75.7255H75.7285H75.7315H75.7345H75.7375H75.7405H75.7435H75.7465H75.7495H75.7525H75.7555H75.7585H75.7615H75.7645H75.7674H75.7704H75.7734H75.7764H75.7794H75.7824H75.7854H75.7884H75.7913H75.7943H75.7973H75.8003H75.8033H75.8063H75.8093H75.8123H75.8152H75.8182H75.8212H75.8242H75.8272H75.8302H75.8331H75.8361H75.8391H75.8421H75.8451H75.848H75.851H75.854H75.857H75.86H75.863H75.8659H75.8689H75.8719H75.8749H75.8778H75.8808H75.8838H75.8868H75.8898H75.8927H75.8957H75.8987H75.9017H75.9046H75.9076H75.9106H75.9136H75.9165H75.9195H75.9225H75.9255H75.9284H75.9314H75.9344H75.9374H75.9403H75.9433H75.9463H75.9492H75.9522H75.9552H75.9582H75.9611H75.9641H75.9671H75.97H75.973H75.976H75.9789H75.9819H75.9849H75.9879H75.9908H75.9938H75.9968H75.9997H76.0027H76.0057H76.0086H76.0116H76.0146H76.0175H76.0205H76.0235H76.0264H76.0294H76.0323H76.0353H76.0383H76.0412H76.0442H76.0472H76.0501H76.0531H76.0561H76.059H76.062H76.0649H76.0679H76.0709H76.0738H76.0768H76.0797H76.0827H76.0857H76.0886H76.0916H76.0945H76.0975H76.1005H76.1034H76.1064H76.1093H76.1123H76.1152H76.1182H76.1212H76.1241H76.1271H76.13H76.133H76.1359H76.1389H76.1419H76.1448H76.1478H76.1507H76.1537H76.1566H76.1596H76.1625H76.1655H76.1685H76.1714H76.1744H76.1773H76.1803H76.1832H76.1862H76.1891H76.1921H76.195H76.198H76.2009H76.2039H76.2068H76.2098H76.2127H76.2157H76.2186H76.2216H76.2245H76.2275H76.2304H76.2334H76.2363H76.2393H76.2422H76.2452H76.2481H76.2511H76.254H76.257H76.2599H76.2629H76.2658H76.2688H76.2717H76.2747H76.2776H76.2806H76.2835H76.2864H76.2894H76.2923H76.2953H76.2982H76.3012H76.3041H76.3071H76.31H76.313H76.3159H76.3188H76.3218H76.3247H76.3277H76.3306H76.3336H76.3365H76.3394H76.3424H76.3453H76.3483H76.3512H76.3542H76.3571H76.36H76.363H76.3659H76.3689H76.3718H76.3748H76.3777H76.3806H76.3836H76.3865H76.3895H76.3924H76.3953H76.3983H76.4012H76.4042H76.4071H76.41H76.413H76.4159H76.4189H76.4218H76.4247H76.4277H76.4306H76.4336H76.4365H76.4394H76.4424H76.4453H76.4482H76.4512H76.4541H76.4571H76.46H76.4629H76.4659H76.4688H76.4717H76.4747H76.4776H76.4806H76.4835H76.4864H76.4894H76.4923H76.4952H76.4982H76.5011H76.5041H76.507H76.5099H76.5129H76.5158H76.5187H76.5217H76.5246H76.5275H76.5305H76.5334H76.5363H76.5393H76.5422H76.5451H76.5481H76.551H76.5539H76.5569H76.5598H76.5627H76.5657H76.5686H76.5716H76.5745H76.5774H76.5804H76.5833H76.5862H76.5892H76.5921H76.595H76.5979H76.6009H76.6038H76.6068H76.6097H76.6126H76.6155H76.6185H76.6214H76.6243H76.6273H76.6302H76.6331H76.6361H76.639H76.6419H76.6449H76.6478H76.6507H76.6537H76.6566H76.6595H76.6625H76.6654H76.6683H76.6713H76.6742H76.6771H76.68H76.683H76.6859H76.6888H76.6918H76.6947H76.6976H76.7006H76.7035H76.7064H76.7094H76.7123H76.7152H76.7181H76.7211H76.724H76.7269H76.7299H76.7328H76.7357H76.7387H76.7416H76.7445H76.7475H76.7504H76.7533H76.7562H76.7592H76.7621H76.765H76.768H76.7709H76.7738H76.7768H76.7797H76.7826H76.7855H76.7885H76.7914H76.7943H76.7973H76.8002H76.8031H76.8061H76.809H76.8119H76.8148H76.8178H76.8207H76.8236H76.8266H76.8295H76.8324H76.8354H76.8383H76.8412H76.8441H76.8471H76.85H76.8736L76.8971 27.5578C77.1839 27.5306 77.2479 27.6008 77.2582 27.6121L77.2583 27.6121C77.2885 27.6453 77.35 27.7562 77.35 28.06V28.0613V28.0626V28.0639V28.0652V28.0664V28.0677V28.069V28.0703V28.0716V28.0729V28.0742V28.0755V28.0768V28.078V28.0793V28.0806V28.0819V28.0832V28.0845V28.0858V28.0871V28.0884V28.0896V28.0909V28.0922V28.0935V28.0948V28.0961V28.0974V28.0987V28.1V28.1012V28.1025V28.1038V28.1051V28.1064V28.1077V28.109V28.1103V28.1116V28.1129V28.1141V28.1154V28.1167V28.118V28.1193V28.1206V28.1219V28.1232V28.1245V28.1257V28.127V28.1283V28.1296V28.1309V28.1322V28.1335V28.1348V28.1361V28.1373V28.1386V28.1399V28.1412V28.1425V28.1438V28.1451V28.1464V28.1477V28.1489V28.1502V28.1515V28.1528V28.1541V28.1554V28.1567V28.158V28.1593V28.1605V28.1618V28.1631V28.1644V28.1657V28.167V28.1683V28.1696V28.1709V28.1721V28.1734V28.1747V28.176V28.1773V28.1786V28.1799V28.1812V28.1825V28.1838V28.185V28.1863V28.1876V28.1889V28.1902V28.1915V28.1928V28.1941V28.1954V28.1966V28.1979V28.1992V28.2005V28.2018V28.2031V28.2044V28.2057V28.207V28.2082V28.2095V28.2108V28.2121V28.2134V28.2147V28.216V28.2173V28.2186V28.2198V28.2211V28.2224V28.2237V28.225V28.2263V28.2276V28.2289V28.2302V28.2314V28.2327V28.234V28.2353V28.2366V28.2379V28.2392V28.2405V28.2418V28.243V28.2443V28.2456V28.2469V28.2482V28.2495V28.2508V28.2521V28.2534V28.2546V28.2559V28.2572V28.2585V28.2598V28.2611V28.2624V28.2637V28.265V28.2662V28.2675V28.2688V28.2701V28.2714V28.2727V28.274V28.2753V28.2766V28.2779V28.2791V28.2804V28.2817V28.283V28.2843V28.2856V28.2869V28.2882V28.2895V28.2907V28.292V28.2933V28.2946V28.2959V28.2972V28.2985V28.2998V28.3011V28.3023V28.3036V28.3049V28.3062V28.3075V28.3088V28.3101V28.3114V28.3127V28.3139V28.3152V28.3165V28.3178V28.3191V28.3204V28.3217V28.323V28.3243V28.3255V28.3268V28.3281V28.3294V28.3307V28.332V28.3333V28.3346V28.3359V28.3371V28.3384V28.3397V28.341V28.3423V28.3436V28.3449V28.3462V28.3475V28.3487V28.35V28.3513V28.3526V28.3539V28.3552V28.3565V28.3578V28.3591V28.3604V28.3616V28.3629V28.3642V28.3655V28.3668V28.3681V28.3694V28.3707V28.372V28.3732V28.3745V28.3758V28.3771V28.3784V28.3797V28.381V28.3823V28.3836V28.3848V28.3861V28.3874V28.3887V28.39V28.3913V28.3926V28.3939V28.3952V28.3964V28.3977V28.399V28.4003V28.4016V28.4029V28.4042V28.4055V28.4068V28.408V28.4093V28.4106V28.4119V28.4132V28.4145V28.4158V28.4171V28.4184V28.4196V28.4209V28.4222V28.4235V28.4248V28.4261V28.4274V28.4287V28.43V28.4312V28.4325V28.4338V28.4351V28.4364V28.4377V28.439V28.4403V28.4416V28.4429V28.4441V28.4454V28.4467V28.448V28.4493V28.4506V28.4519V28.4532V28.4545V28.4557V28.457V28.4583V28.4596V28.4609V28.4622V28.4635V28.4648V28.4661V28.4673V28.4686V28.4699V28.4712V28.4725V28.4738V28.4751V28.4764V28.4777V28.4789V28.4802V28.4815V28.4828V28.4841V28.4854V28.4867V28.488V28.4893V28.4905V28.4918V28.4931V28.4944V28.4957V28.497V28.4983V28.4996V28.5009V28.5021V28.5034V28.5047V28.506V28.5073V28.5086V28.5099V28.5112V28.5125V28.5138V28.515V28.5163V28.5176V28.5189V28.5202V28.5215V28.5228V28.5241V28.5254V28.5266V28.5279V28.5292V28.5305V28.5318V28.5331V28.5344V28.5357V28.537V28.5382V28.5395V28.5408V28.5421V28.5434V28.5447V28.546V28.5473V28.5486V28.5498V28.5511V28.5524V28.5537V28.555V28.5563V28.5576V28.5589V28.5602V28.5614V28.5627V28.564V28.5653V28.5666V28.5679V28.5692V28.5705V28.5718V28.573V28.5743V28.5756V28.5769V28.5782V28.5795V28.5808V28.5821V28.5834V28.5846V28.5859V28.5872V28.5885V28.5898V28.5911V28.5924V28.5937V28.595V28.5962V28.5975V28.5988V28.6001V28.6014V28.6027V28.604V28.6053V28.6066V28.6079V28.6091V28.6104V28.6117V28.613V28.6143V28.6156V28.6169V28.6182V28.6195V28.6207V28.622V28.6233V28.6246V28.6259V28.6272V28.6285V28.6298V28.6311V28.6323V28.6336V28.6349V28.6362V28.6375V28.6388V28.6401V28.6414V28.6427V28.6439V28.6452V28.6465V28.6478V28.6491V28.6504V28.6517V28.653V28.6543V28.6555V28.6568V28.6581V28.6594V28.6607V28.662V28.6633V28.6646V28.6659V28.6671V28.6684V28.6697V28.671V28.6723V28.6736V28.6749V28.6762V28.6775V28.6787V28.68V28.6813V28.6826V28.6839V28.6852V28.6865V28.6878V28.6891V28.6904V28.6916V28.6929V28.6942V28.6955V28.6968V28.6981V28.6994V28.7007V28.702V28.7032V28.7045V28.7058V28.7071V28.7084V28.7097V28.711V28.7123V28.7136V28.7148V28.7154C77.3423 29.1349 77.3365 29.4082 77.3113 29.6043C77.2953 29.728 77.2757 29.7803 77.2674 29.7978C77.2499 29.8057 77.1982 29.824 77.0774 29.8375C76.882 29.8593 76.6097 29.86 76.19 29.86V29.8598L76.1762 29.8602C75.9048 29.8677 75.6548 29.881 75.4525 29.9214C75.2655 29.9587 74.9888 30.0424 74.8224 30.3C74.6521 30.5639 74.6966 30.8539 74.7486 31.0443C74.8035 31.2455 74.9069 31.4764 75.0289 31.7257C75.8672 33.5206 76.7715 35.2821 77.6768 37.0458C77.7687 37.2248 77.8606 37.4039 77.9525 37.5831C78.2247 38.1448 78.4474 38.7344 78.6786 39.3465C78.7163 39.4463 78.7542 39.5467 78.7927 39.6477L78.7926 39.6477L78.7954 39.6549C79.101 40.4225 79.2252 41.2503 79.1586 42.0738C79.0919 42.8973 78.8362 43.6943 78.4112 44.4028L78.4063 44.411L78.4018 44.4193C77.8545 45.4156 77.3357 46.4267 76.8207 47.4305C76.7813 47.5072 76.742 47.5838 76.7027 47.6604C76.1479 48.7412 75.5948 49.8127 75.0054 50.8627C73.7309 53.0703 72.9329 55.5204 72.663 58.0551C71.9602 64.146 70.9418 70.1963 69.6119 76.1815L69.6104 76.1886C68.5238 81.4346 68.1841 86.8079 68.6015 92.149M73.597 0.5L62.59 57.07L63.0851 57.0003C63.0852 57.0011 63.0853 57.0019 63.0854 57.0027C63.1609 57.5396 63.1931 58.0965 63.2238 58.6276C63.235 58.821 63.246 59.011 63.2588 59.1954L63.259 59.1983C63.5607 63.948 63.5002 68.7138 63.078 73.4544L63.0774 73.4614C62.703 77.0852 62.6531 80.7352 62.9282 84.368M73.597 0.5C73.0978 0.810701 72.7001 1.26184 72.4546 1.79812L72.4494 1.80947L72.4437 1.82055C71.9019 2.86318 71.4841 3.96569 71.199 5.10552C71.1136 5.56343 70.8803 5.98089 70.5347 6.29375C70.191 6.60501 69.7552 6.79541 69.2937 6.83643C68.2745 7.01543 67.3091 7.42338 66.4702 8.02967C65.6255 8.64016 64.9315 9.43559 64.4412 10.3552L64.4355 10.3659L64.4354 10.3658C63.7252 11.6237 63.1179 12.9369 62.6193 14.2926L62.6165 14.3L62.6165 14.3C61.9114 16.1273 61.2872 17.987 60.6699 19.8602C60.5846 20.119 60.4994 20.3782 60.4142 20.6375C59.8835 22.2518 59.3502 23.8743 58.7703 25.4799L58.7685 25.4847C58.6142 25.8986 58.4838 26.2454 58.3469 26.514C58.2062 26.7901 58.0344 27.0346 57.7695 27.2075C57.5086 27.3777 57.2129 27.4419 56.8999 27.4714C56.5965 27.5 56.2186 27.5 55.7642 27.5H55.74C55.4533 27.5 55.2047 27.4945 54.9936 27.4899L54.9865 27.4897C54.7703 27.485 54.6019 27.4814 54.4624 27.4843C54.2835 27.4879 54.2027 27.5036 54.1718 27.5116C54.1612 27.5427 54.1399 27.6227 54.1263 27.798C54.1095 28.0154 54.1073 28.2961 54.1043 28.6841C54.1033 28.8255 54.1021 28.9811 54.1 29.153C54.1003 29.5226 54.1629 29.6618 54.2057 29.7121C54.2255 29.7353 54.3055 29.8173 54.6562 29.8006L54.6681 29.8H54.68C54.7091 29.8 54.7416 29.797 54.8033 29.7912C54.8164 29.7899 54.8309 29.7886 54.847 29.7871C54.922 29.7802 55.0343 29.7706 55.15 29.7787C55.2664 29.7869 55.427 29.8151 55.5801 29.9148C55.7454 30.0225 55.8549 30.1826 55.9097 30.3689C55.9611 30.5437 55.9612 30.7196 55.9075 30.8864C55.8564 31.045 55.7668 31.1639 55.6889 31.2477C55.6131 31.3293 55.5289 31.3978 55.4726 31.4436L55.4694 31.4462C55.406 31.4977 55.3717 31.5256 55.3448 31.5523C55.3444 31.5527 55.344 31.5531 55.3436 31.5536L54.99 31.2C53.8043 32.4036 52.3037 33.2492 50.66 33.64L73.597 0.5ZM68.6015 92.149C68.6015 92.1488 68.6015 92.1486 68.6015 92.1483L69.1 92.11L68.6015 92.149ZM68.6015 92.149C68.6283 92.4957 68.7151 92.906 69.0606 93.1434C69.396 93.3737 69.8039 93.3192 70.1136 93.2469L70.1221 93.245L70.1304 93.2427C71.2837 92.9311 72.4897 92.8661 73.6697 93.0519M73.6697 93.0519C74.6394 93.2561 75.5247 93.7488 76.2092 94.4656C76.7592 95.0415 77.1587 95.7403 77.3771 96.5M73.6697 93.0519C73.6736 93.0526 73.6776 93.0532 73.6815 93.0538L73.76 92.56M73.6697 93.0519C73.6658 93.0511 73.662 93.0503 73.6582 93.0495L73.76 92.56M77.3771 96.5H65.084M77.3771 96.5C77.4243 96.664 77.463 96.8309 77.493 97H64.7M77.3771 96.5H77.8954C77.6647 95.6095 77.21 94.7896 76.5708 94.1203C75.8136 93.3274 74.8334 92.7833 73.76 92.56M65.084 96.5C64.0324 92.5225 63.3114 88.4647 62.9282 84.368M65.084 96.5H64.7V97M65.084 96.5C65.1166 96.6233 65.1495 96.7466 65.1827 96.8697L64.7 97M62.9282 84.368C62.9281 84.3665 62.928 84.365 62.9278 84.3635L62.43 84.41M62.9282 84.368C62.9284 84.3694 62.9285 84.3708 62.9286 84.3722L62.43 84.41M62.43 84.41C62.8275 88.6636 63.5869 92.8755 64.7 97M62.43 84.41C62.1522 80.7462 62.2024 77.0649 62.58 73.41L64.7 97M64.7 97L73.76 92.56M48.8581 34.6145C49.4937 34.4572 50.1353 34.2985 50.7827 34.1248L52.0646 73.7615C51.9541 74.4569 51.8469 75.1517 51.7399 75.8455C51.0786 80.1309 50.4235 84.3763 49.0365 88.4695L49.0363 88.4695L49.033 88.4799C48.6995 89.5403 48.1888 90.5365 47.5227 91.4264C47.4075 91.5742 47.3013 91.7299 47.2342 91.8888C47.1657 92.051 47.1135 92.2764 47.2039 92.5141C47.2929 92.748 47.4782 92.8826 47.6317 92.9612C47.7861 93.0402 47.9699 93.0943 48.1586 93.1374L48.1737 93.1409L48.189 93.1434C48.9527 93.2687 49.6711 93.5888 50.2749 94.0728C50.8787 94.5568 51.3475 95.1883 51.636 95.9064L51.6452 95.9293L51.6567 95.9512C51.7466 96.1237 51.8054 96.3094 51.8315 96.5H19.5035C19.5282 94.6843 19.6816 92.8738 19.835 91.0629C19.8495 90.8926 19.8639 90.7223 19.8782 90.5519L19.8784 90.55C20.2277 86.1983 20.6866 81.8803 21.3344 77.5846L21.3345 77.5843C22.7129 68.4045 24.4857 59.3555 28.1302 50.7755L28.1303 50.7755L28.1344 50.7652C29.252 47.9627 30.8232 45.3631 32.785 43.0709C36.1243 39.4021 40.4231 37.2193 45.1287 35.6441L45.1289 35.6441C46.348 35.2355 47.5912 34.9279 48.8581 34.6145ZM70.1 76.29C71.4338 70.287 72.4552 64.2189 73.16 58.11C73.4224 55.643 74.1992 53.2584 75.44 51.11L70.1 76.29Z" fill="black" stroke="black"/>
</g>
<defs>
<filter id="filter0_d_2403_488" x="0" y="6" width="108" height="108" filterUnits="userSpaceOnUse" color-interpolation-filters="sRGB">
<feFlood flood-opacity="0" result="BackgroundImageFix"/>
<feColorMatrix in="SourceAlpha" type="matrix" values="0 0 0 0 0 0 0 0 0 0 0 0 0 0 0 0 0 0 127 0" result="hardAlpha"/>
<feOffset dy="4"/>
<feGaussianBlur stdDeviation="2"/>
<feComposite in2="hardAlpha" operator="out"/>
<feColorMatrix type="matrix" values="0 0 0 0 0 0 0 0 0 0 0 0 0 0 0 0 0 0 0.25 0"/>
<feBlend mode="normal" in2="BackgroundImageFix" result="effect1_dropShadow_2403_488"/>
<feBlend mode="normal" in="SourceGraphic" in2="effect1_dropShadow_2403_488" result="shape"/>
</filter>
<clipPath id="clip0_2403_488">
<rect width="70" height="97" fill="white" transform="translate(19)"/>
</clipPath>
</defs>
</svg>
